<svg xmlns="http://www.w3.org/2000/svg" version="1.1" xmlns:xlink="http://www.w3.org/1999/xlink" xmlns:svgjs="http://svgjs.com/svgjs" width="1440" height="560" preserveAspectRatio="none" viewBox="0 0 1440 560">
    <g mask="url(&quot;#SvgjsMask2213&quot;)" fill="none">
        <rect width="1440" height="560" x="0" y="0" fill="url(#SvgjsLinearGradient2214)"></rect>
        <path d="M1440 0L1190.49 0L1440 21.79z" fill="rgba(255, 255, 255, .1)"></path>
        <path d="M1190.49 0L1440 21.79L1440 283.05L1117.84 0z" fill="rgba(255, 255, 255, .075)"></path>
        <path d="M1117.8400000000001 0L1440 283.05L1440 310.27L439.3100000000002 0z" fill="rgba(255, 255, 255, .05)"></path>
        <path d="M439.31000000000006 0L1440 310.27L1440 425.76L364.96000000000004 0z" fill="rgba(255, 255, 255, .025)"></path>
        <path d="M0 560L460.21 560L0 402.16999999999996z" fill="rgba(0, 0, 0, .1)"></path>
        <path d="M0 402.16999999999996L460.21 560L949.06 560L0 283.74999999999994z" fill="rgba(0, 0, 0, .075)"></path>
        <path d="M0 283.75L949.06 560L1125.28 560L0 226.07z" fill="rgba(0, 0, 0, .05)"></path>
        <path d="M0 226.07L1125.28 560L1157.97 560L0 214.97z" fill="rgba(0, 0, 0, .025)"></path>
    </g>
    <defs>
        <mask id="SvgjsMask2213">
            <rect width="1440" height="560" fill="#ffffff"></rect>
        </mask>
        <linearGradient x1="84.72%" y1="139.29%" x2="15.28%" y2="-39.29%" gradientUnits="userSpaceOnUse" id="SvgjsLinearGradient2214">
            <stop stop-color="rgba(71, 14, 14, 1)" offset="0"></stop>
            <stop stop-color="rgba(0, 0, 0, 1)" offset="0"></stop>
        </linearGradient>
    </defs>
</svg>